<svg width="960" height="640" viewBox="0 0 960 640" fill="none" xmlns="http://www.w3.org/2000/svg">
  <rect width="960" height="640" rx="40" fill="#F8FAFC"/>
  <!-- Phone -->
  <rect x="120" y="100" width="200" height="340" rx="40" fill="#F3F4F6"/>
  <rect x="148" y="148" width="144" height="220" rx="22" fill="#E5E7EB"/>
  <circle cx="220" cy="400" r="14" fill="#CBD5E1"/>
  <!-- Speech bubble top-right -->
  <rect x="400" y="80" width="320" height="160" rx="28" fill="#F3F4F6"/>
  <rect x="436" y="118" width="180" height="16" rx="8" fill="#E5E7EB"/>
  <rect x="436" y="148" width="240" height="16" rx="8" fill="#E5E7EB"/>
  <rect x="436" y="178" width="140" height="16" rx="8" fill="#CBD5E1"/>
  <!-- Bubble tail -->
  <path d="M440 240L470 240L430 280Z" fill="#F3F4F6"/>
  <!-- Envelope -->
  <rect x="500" y="310" width="280" height="180" rx="24" fill="#E5E7EB"/>
  <rect x="530" y="350" width="220" height="14" rx="7" fill="#CBD5E1"/>
  <rect x="530" y="376" width="160" height="14" rx="7" fill="#CBD5E1"/>
  <rect x="530" y="402" width="190" height="14" rx="7" fill="#FFFFFF"/>
  <!-- Envelope flap -->
  <path d="M500 310L640 410L780 310" fill="#F3F4F6"/>
  <!-- Question mark bubble -->
  <rect x="140" y="480" width="140" height="100" rx="22" fill="#FFFFFF"/>
  <circle cx="210" cy="518" r="18" fill="#E5E7EB"/>
  <circle cx="210" cy="518" r="7" fill="#F97316" opacity="0.45"/>
  <rect x="206" y="544" width="8" height="8" rx="4" fill="#E5E7EB"/>
  <!-- Connection dots -->
  <circle cx="360" cy="320" r="10" fill="#A5B4FC"/>
  <circle cx="400" cy="420" r="8" fill="#F3F4F6"/>
  <circle cx="820" cy="190" r="12" fill="#FFFFFF"/>
  <circle cx="860" cy="140" r="8" fill="#CBD5E1"/>
</svg>
