<svg width="960" height="640" viewBox="0 0 960 640" fill="none" xmlns="http://www.w3.org/2000/svg">
  <g stroke="#2F3B45" stroke-opacity="0.55" stroke-width="6">
    <rect x="220" y="120" width="220" height="360" rx="48"/>
    <circle cx="330" cy="440" r="18"/>
    <path d="M560 220H760C792.137 220 818 245.863 818 278V360C818 392.137 792.137 418 760 418H688L640 466V418H560C527.863 418 502 392.137 502 360V278C502 245.863 527.863 220 560 220Z"/>
    <path d="M650 292C650 270 666 256 692 256C718 256 734 270 734 292C734 320 706 318 706 352"/>
    <circle cx="706" cy="388" r="10"/>
  </g>
</svg>
