<svg width="720" height="420" viewBox="0 0 720 420" fill="none" xmlns="http://www.w3.org/2000/svg">
  <rect width="720" height="420" rx="28" fill="#F8FAFC"/>
  <rect x="60" y="70" width="160" height="56" rx="16" fill="#F3F4F6"/>
  <rect x="280" y="70" width="160" height="56" rx="16" fill="#E5E7EB"/>
  <rect x="500" y="70" width="160" height="56" rx="16" fill="#F3F4F6"/>
  <path d="M220 98H280" stroke="#CBD5E1" stroke-width="6" stroke-linecap="round"/>
  <path d="M440 98H500" stroke="#CBD5E1" stroke-width="6" stroke-linecap="round"/>
  <rect x="120" y="180" width="200" height="56" rx="16" fill="#FFFFFF"/>
  <rect x="380" y="180" width="200" height="56" rx="16" fill="#FFFFFF"/>
  <path d="M220 126V180" stroke="#CBD5E1" stroke-width="6" stroke-linecap="round"/>
  <path d="M500 126V180" stroke="#CBD5E1" stroke-width="6" stroke-linecap="round"/>
  <rect x="160" y="290" width="400" height="64" rx="18" fill="#E5E7EB"/>
  <path d="M320 236V290" stroke="#CBD5E1" stroke-width="6" stroke-linecap="round"/>
  <path d="M400 236V290" stroke="#CBD5E1" stroke-width="6" stroke-linecap="round"/>
  <circle cx="120" cy="98" r="10" fill="#CBD5E1"/>
  <circle cx="600" cy="98" r="10" fill="#CBD5E1"/>
  <circle cx="240" cy="208" r="10" fill="#CBD5E1"/>
  <circle cx="480" cy="208" r="10" fill="#CBD5E1"/>
  <circle cx="360" cy="322" r="12" fill="#F97316" opacity="0.5"/>
</svg>
