<svg width="720" height="420" viewBox="0 0 720 420" fill="none" xmlns="http://www.w3.org/2000/svg">
  <rect width="720" height="420" rx="28" fill="#F8FAFC"/>
  <!-- Top row nodes -->
  <rect x="60" y="50" width="180" height="70" rx="18" fill="#F3F4F6"/>
  <rect x="86" y="72" width="100" height="12" rx="6" fill="#E5E7EB"/>
  <rect x="280" y="50" width="180" height="70" rx="18" fill="#E5E7EB"/>
  <rect x="306" y="72" width="100" height="12" rx="6" fill="#CBD5E1"/>
  <rect x="500" y="50" width="180" height="70" rx="18" fill="#F3F4F6"/>
  <rect x="526" y="72" width="100" height="12" rx="6" fill="#E5E7EB"/>
  <!-- Connectors top to middle -->
  <path d="M240 85H280" stroke="#CBD5E1" stroke-width="5" stroke-linecap="round"/>
  <path d="M460 85H500" stroke="#CBD5E1" stroke-width="5" stroke-linecap="round"/>
  <path d="M150 120V170" stroke="#CBD5E1" stroke-width="5" stroke-linecap="round"/>
  <path d="M370 120V170" stroke="#CBD5E1" stroke-width="5" stroke-linecap="round"/>
  <path d="M590 120V170" stroke="#CBD5E1" stroke-width="5" stroke-linecap="round"/>
  <!-- Middle row nodes -->
  <rect x="80" y="170" width="220" height="70" rx="18" fill="#FFFFFF"/>
  <rect x="110" y="192" width="140" height="12" rx="6" fill="#E5E7EB"/>
  <rect x="420" y="170" width="220" height="70" rx="18" fill="#FFFFFF"/>
  <rect x="450" y="192" width="140" height="12" rx="6" fill="#E5E7EB"/>
  <!-- Connectors middle to bottom -->
  <path d="M190 240V300" stroke="#CBD5E1" stroke-width="5" stroke-linecap="round"/>
  <path d="M530 240V300" stroke="#CBD5E1" stroke-width="5" stroke-linecap="round"/>
  <!-- Bottom result node -->
  <rect x="140" y="300" width="440" height="80" rx="22" fill="#E5E7EB"/>
  <rect x="180" y="326" width="200" height="14" rx="7" fill="#CBD5E1"/>
  <rect x="180" y="348" width="140" height="14" rx="7" fill="#FFFFFF"/>
  <!-- Node dots -->
  <circle cx="60" cy="85" r="8" fill="#CBD5E1"/>
  <circle cx="680" cy="85" r="8" fill="#CBD5E1"/>
  <circle cx="300" cy="205" r="8" fill="#CBD5E1"/>
  <circle cx="360" cy="340" r="12" fill="#F97316" opacity="0.5"/>
</svg>
