<svg width="720" height="420" viewBox="0 0 720 420" fill="none" xmlns="http://www.w3.org/2000/svg">
  <rect width="720" height="420" rx="28" fill="#F1ECE4"/>
  <!-- Top row nodes -->
  <rect x="60" y="50" width="180" height="70" rx="18" fill="#E6D6CA"/>
  <rect x="86" y="72" width="100" height="12" rx="6" fill="#D9C2B4"/>
  <rect x="280" y="50" width="180" height="70" rx="18" fill="#D9C2B4"/>
  <rect x="306" y="72" width="100" height="12" rx="6" fill="#CFAE9D"/>
  <rect x="500" y="50" width="180" height="70" rx="18" fill="#E6D6CA"/>
  <rect x="526" y="72" width="100" height="12" rx="6" fill="#D9C2B4"/>
  <!-- Connectors top to middle -->
  <path d="M240 85H280" stroke="#CFAE9D" stroke-width="5" stroke-linecap="round"/>
  <path d="M460 85H500" stroke="#CFAE9D" stroke-width="5" stroke-linecap="round"/>
  <path d="M150 120V170" stroke="#CFAE9D" stroke-width="5" stroke-linecap="round"/>
  <path d="M370 120V170" stroke="#CFAE9D" stroke-width="5" stroke-linecap="round"/>
  <path d="M590 120V170" stroke="#CFAE9D" stroke-width="5" stroke-linecap="round"/>
  <!-- Middle row nodes -->
  <rect x="80" y="170" width="220" height="70" rx="18" fill="#EFE7DE"/>
  <rect x="110" y="192" width="140" height="12" rx="6" fill="#D9C2B4"/>
  <rect x="420" y="170" width="220" height="70" rx="18" fill="#EFE7DE"/>
  <rect x="450" y="192" width="140" height="12" rx="6" fill="#D9C2B4"/>
  <!-- Connectors middle to bottom -->
  <path d="M190 240V300" stroke="#CFAE9D" stroke-width="5" stroke-linecap="round"/>
  <path d="M530 240V300" stroke="#CFAE9D" stroke-width="5" stroke-linecap="round"/>
  <!-- Bottom result node -->
  <rect x="140" y="300" width="440" height="80" rx="22" fill="#D9C2B4"/>
  <rect x="180" y="326" width="200" height="14" rx="7" fill="#CFAE9D"/>
  <rect x="180" y="348" width="140" height="14" rx="7" fill="#EFE7DE"/>
  <!-- Node dots -->
  <circle cx="60" cy="85" r="8" fill="#CFAE9D"/>
  <circle cx="680" cy="85" r="8" fill="#CFAE9D"/>
  <circle cx="300" cy="205" r="8" fill="#CFAE9D"/>
  <circle cx="360" cy="340" r="12" fill="#d07a3a" opacity="0.5"/>
</svg>
