<svg width="720" height="420" viewBox="0 0 720 420" fill="none" xmlns="http://www.w3.org/2000/svg">
  <rect width="720" height="420" rx="28" fill="#F8FAFC"/>
  <!-- Six service stage cards in a 3x2 grid -->
  <!-- Row 1 -->
  <rect x="50" y="50" width="190" height="140" rx="20" fill="#F3F4F6"/>
  <rect x="76" y="80" width="80" height="14" rx="7" fill="#E5E7EB"/>
  <rect x="76" y="104" width="140" height="12" rx="6" fill="#CBD5E1"/>
  <rect x="76" y="124" width="120" height="12" rx="6" fill="#CBD5E1"/>
  <circle cx="200" cy="160" r="10" fill="#FFFFFF"/>
  <rect x="265" y="50" width="190" height="140" rx="20" fill="#E5E7EB"/>
  <rect x="291" y="80" width="80" height="14" rx="7" fill="#CBD5E1"/>
  <rect x="291" y="104" width="140" height="12" rx="6" fill="#FFFFFF"/>
  <rect x="291" y="124" width="100" height="12" rx="6" fill="#FFFFFF"/>
  <circle cx="415" cy="160" r="10" fill="#F3F4F6"/>
  <rect x="480" y="50" width="190" height="140" rx="20" fill="#F3F4F6"/>
  <rect x="506" y="80" width="80" height="14" rx="7" fill="#E5E7EB"/>
  <rect x="506" y="104" width="140" height="12" rx="6" fill="#CBD5E1"/>
  <rect x="506" y="124" width="110" height="12" rx="6" fill="#CBD5E1"/>
  <circle cx="630" cy="160" r="10" fill="#FFFFFF"/>
  <!-- Row 1 connectors -->
  <path d="M240 120H265" stroke="#CBD5E1" stroke-width="4" stroke-linecap="round"/>
  <path d="M455 120H480" stroke="#CBD5E1" stroke-width="4" stroke-linecap="round"/>
  <!-- Row 2 -->
  <rect x="50" y="230" width="190" height="140" rx="20" fill="#FFFFFF"/>
  <rect x="76" y="260" width="80" height="14" rx="7" fill="#E5E7EB"/>
  <rect x="76" y="284" width="140" height="12" rx="6" fill="#E5E7EB"/>
  <rect x="76" y="304" width="100" height="12" rx="6" fill="#E5E7EB"/>
  <circle cx="200" cy="340" r="10" fill="#CBD5E1"/>
  <rect x="265" y="230" width="190" height="140" rx="20" fill="#FFFFFF"/>
  <rect x="291" y="260" width="80" height="14" rx="7" fill="#E5E7EB"/>
  <rect x="291" y="284" width="140" height="12" rx="6" fill="#E5E7EB"/>
  <rect x="291" y="304" width="120" height="12" rx="6" fill="#E5E7EB"/>
  <circle cx="415" cy="340" r="10" fill="#CBD5E1"/>
  <rect x="480" y="230" width="190" height="140" rx="20" fill="#E5E7EB"/>
  <rect x="506" y="260" width="80" height="14" rx="7" fill="#FFFFFF"/>
  <rect x="506" y="284" width="140" height="12" rx="6" fill="#FFFFFF"/>
  <rect x="506" y="304" width="100" height="12" rx="6" fill="#FFFFFF"/>
  <circle cx="630" cy="340" r="10" fill="#F3F4F6"/>
  <!-- Row 2 connectors -->
  <path d="M240 300H265" stroke="#CBD5E1" stroke-width="4" stroke-linecap="round"/>
  <path d="M455 300H480" stroke="#CBD5E1" stroke-width="4" stroke-linecap="round"/>
  <!-- Vertical connectors between rows -->
  <path d="M145 190V230" stroke="#CBD5E1" stroke-width="4" stroke-linecap="round"/>
  <path d="M360 190V230" stroke="#CBD5E1" stroke-width="4" stroke-linecap="round"/>
  <path d="M575 190V230" stroke="#CBD5E1" stroke-width="4" stroke-linecap="round"/>
  <!-- Accent dot on one stage -->
  <circle cx="575" cy="340" r="12" fill="#F97316" opacity="0.45"/>
</svg>
