<svg width="720" height="420" viewBox="0 0 720 420" fill="none" xmlns="http://www.w3.org/2000/svg">
  <rect width="720" height="420" rx="28" fill="#F8FAFC"/>
  <!-- Large chat bubble - left -->
  <rect x="60" y="50" width="340" height="170" rx="28" fill="#F3F4F6"/>
  <rect x="96" y="90" width="180" height="16" rx="8" fill="#E5E7EB"/>
  <rect x="96" y="118" width="260" height="16" rx="8" fill="#E5E7EB"/>
  <rect x="96" y="146" width="200" height="16" rx="8" fill="#CBD5E1"/>
  <rect x="96" y="174" width="140" height="16" rx="8" fill="#E5E7EB"/>
  <path d="M120 220L160 220L100 264Z" fill="#F3F4F6"/>
  <!-- Reply bubble - right -->
  <rect x="300" y="220" width="360" height="140" rx="28" fill="#E5E7EB"/>
  <rect x="336" y="256" width="200" height="14" rx="7" fill="#CBD5E1"/>
  <rect x="336" y="282" width="280" height="14" rx="7" fill="#CBD5E1"/>
  <rect x="336" y="308" width="160" height="14" rx="7" fill="#FFFFFF"/>
  <path d="M600 360L560 360L620 396Z" fill="#E5E7EB"/>
  <!-- Activity dots -->
  <circle cx="620" cy="100" r="12" fill="#A5B4FC"/>
  <circle cx="654" cy="80" r="8" fill="#FFFFFF"/>
  <circle cx="640" cy="130" r="6" fill="#F97316" opacity="0.45"/>
  <!-- Channel indicators -->
  <circle cx="120" cy="310" r="20" fill="#FFFFFF"/>
  <circle cx="170" cy="340" r="16" fill="#F3F4F6"/>
  <circle cx="220" cy="310" r="14" fill="#FFFFFF"/>
</svg>
