<svg width="720" height="420" viewBox="0 0 720 420" fill="none" xmlns="http://www.w3.org/2000/svg">
  <rect width="720" height="420" rx="28" fill="#F8FAFC"/>
  <!-- Case study cards / portfolio layout -->
  <!-- Large featured card -->
  <rect x="50" y="50" width="380" height="200" rx="22" fill="#F3F4F6"/>
  <rect x="80" y="80" width="160" height="18" rx="9" fill="#E5E7EB"/>
  <rect x="80" y="110" width="300" height="14" rx="7" fill="#CBD5E1"/>
  <rect x="80" y="134" width="260" height="14" rx="7" fill="#CBD5E1"/>
  <rect x="80" y="158" width="200" height="14" rx="7" fill="#CBD5E1"/>
  <!-- Metric badge inside featured card -->
  <rect x="80" y="196" width="80" height="32" rx="16" fill="#E5E7EB"/>
  <rect x="176" y="196" width="60" height="32" rx="16" fill="#E5E7EB"/>
  <!-- Side cards stack -->
  <rect x="450" y="50" width="220" height="92" rx="18" fill="#E5E7EB"/>
  <rect x="476" y="72" width="120" height="12" rx="6" fill="#CBD5E1"/>
  <rect x="476" y="94" width="160" height="12" rx="6" fill="#FFFFFF"/>
  <rect x="476" y="116" width="80" height="12" rx="6" fill="#FFFFFF"/>
  <rect x="450" y="158" width="220" height="92" rx="18" fill="#FFFFFF"/>
  <rect x="476" y="180" width="120" height="12" rx="6" fill="#E5E7EB"/>
  <rect x="476" y="202" width="160" height="12" rx="6" fill="#E5E7EB"/>
  <rect x="476" y="224" width="100" height="12" rx="6" fill="#CBD5E1"/>
  <!-- Bottom row - result indicators -->
  <rect x="50" y="280" width="200" height="100" rx="18" fill="#FFFFFF"/>
  <rect x="78" y="306" width="80" height="20" rx="10" fill="#E5E7EB"/>
  <rect x="78" y="338" width="140" height="12" rx="6" fill="#CBD5E1"/>
  <rect x="270" y="280" width="200" height="100" rx="18" fill="#E5E7EB"/>
  <rect x="298" y="306" width="80" height="20" rx="10" fill="#CBD5E1"/>
  <rect x="298" y="338" width="140" height="12" rx="6" fill="#FFFFFF"/>
  <rect x="490" y="280" width="180" height="100" rx="18" fill="#F3F4F6"/>
  <rect x="518" y="306" width="80" height="20" rx="10" fill="#E5E7EB"/>
  <rect x="518" y="338" width="120" height="12" rx="6" fill="#CBD5E1"/>
  <!-- Accent dot -->
  <circle cx="400" cy="96" r="10" fill="#F97316" opacity="0.45"/>
</svg>
