<svg width="420" height="240" viewBox="0 0 420 240" fill="none" xmlns="http://www.w3.org/2000/svg">
  <rect width="420" height="240" rx="24" fill="#EFE7DE"/>
  <!-- Code brackets + gear - AI-Enabled Products -->
  <!-- Left angle bracket < -->
  <path d="M130 80L80 120L130 160" stroke="#D9C2B4" stroke-width="12" stroke-linecap="round" stroke-linejoin="round" fill="none"/>
  <!-- Right angle bracket > -->
  <path d="M290 80L340 120L290 160" stroke="#D9C2B4" stroke-width="12" stroke-linecap="round" stroke-linejoin="round" fill="none"/>
  <!-- Center gear/cog circle -->
  <circle cx="210" cy="120" r="36" fill="#E6D6CA"/>
  <circle cx="210" cy="120" r="20" fill="#EFE7DE"/>
  <!-- Gear teeth (small rects around the circle) -->
  <rect x="204" y="78" width="12" height="14" rx="3" fill="#E6D6CA"/>
  <rect x="204" y="148" width="12" height="14" rx="3" fill="#E6D6CA"/>
  <rect x="168" y="114" width="14" height="12" rx="3" fill="#E6D6CA"/>
  <rect x="238" y="114" width="14" height="12" rx="3" fill="#E6D6CA"/>
  <!-- Diagonal teeth -->
  <rect x="179" y="90" width="12" height="12" rx="3" fill="#E6D6CA" transform="rotate(-45 185 96)"/>
  <rect x="229" y="90" width="12" height="12" rx="3" fill="#E6D6CA" transform="rotate(45 235 96)"/>
  <rect x="179" y="138" width="12" height="12" rx="3" fill="#E6D6CA" transform="rotate(45 185 144)"/>
  <rect x="229" y="138" width="12" height="12" rx="3" fill="#E6D6CA" transform="rotate(-45 235 144)"/>
  <!-- Inner accent dot -->
  <circle cx="210" cy="120" r="8" fill="#d07a3a" opacity="0.45"/>
  <!-- Subtle code lines below -->
  <rect x="140" y="186" width="60" height="8" rx="4" fill="#D9C2B4"/>
  <rect x="210" y="186" width="80" height="8" rx="4" fill="#E6D6CA"/>
  <rect x="160" y="202" width="100" height="8" rx="4" fill="#E6D6CA"/>
</svg>
